<svg xmlns="http://www.w3.org/2000/svg" width="800" height="800" viewBox="0 0 800 800" fill="none" aria-hidden="true">
  <defs>
    <linearGradient id="g1" x1="0" y1="0" x2="1" y2="1">
      <stop offset="0%" stop-color="#ff385c" stop-opacity="0.9"/>
      <stop offset="100%" stop-color="#0d9488" stop-opacity="0.7"/>
    </linearGradient>
    <linearGradient id="g2" x1="0" y1="1" x2="1" y2="0">
      <stop offset="0%" stop-color="#1a1412"/>
      <stop offset="100%" stop-color="#3d2f2a"/>
    </linearGradient>
    <pattern id="dots" width="24" height="24" patternUnits="userSpaceOnUse">
      <circle cx="2" cy="2" r="1.5" fill="#1a1412" fill-opacity="0.08"/>
    </pattern>
  </defs>
  <rect width="800" height="800" fill="url(#dots)"/>
  <!-- Neural graph -->
  <g stroke="#1a1412" stroke-opacity="0.12" stroke-width="1.5">
    <line x1="120" y1="200" x2="280" y2="140"/>
    <line x1="280" y1="140" x2="420" y2="220"/>
    <line x1="420" y1="220" x2="580" y2="160"/>
    <line x1="280" y1="140" x2="340" y2="320"/>
    <line x1="420" y1="220" x2="480" y2="380"/>
    <line x1="340" y1="320" x2="480" y2="380"/>
    <line x1="480" y1="380" x2="640" y2="340"/>
    <line x1="120" y1="200" x2="200" y2="400"/>
    <line x1="200" y1="400" x2="340" y2="320"/>
  </g>
  <circle cx="120" cy="200" r="10" fill="url(#g1)"/>
  <circle cx="280" cy="140" r="14" fill="#ff385c" fill-opacity="0.85"/>
  <circle cx="420" cy="220" r="11" fill="#0d9488" fill-opacity="0.85"/>
  <circle cx="580" cy="160" r="9" fill="#f5a623" fill-opacity="0.9"/>
  <circle cx="340" cy="320" r="12" fill="url(#g1)"/>
  <circle cx="480" cy="380" r="16" fill="#1a1412" fill-opacity="0.75"/>
  <circle cx="640" cy="340" r="10" fill="#0d9488"/>
  <circle cx="200" cy="400" r="8" fill="#ff385c" fill-opacity="0.6"/>
  <!-- Abstract screen -->
  <rect x="480" y="480" width="240" height="160" rx="16" fill="url(#g2)" transform="rotate(-6 600 560)"/>
  <rect x="500" y="510" width="200" height="100" rx="8" fill="#faf7f4" fill-opacity="0.12" transform="rotate(-6 600 560)"/>
  <rect x="140" y="520" width="200" height="140" rx="14" fill="#fff" fill-opacity="0.9" stroke="#1a1412" stroke-opacity="0.08" transform="rotate(4 240 590)"/>
  <rect x="160" y="548" width="80" height="8" rx="4" fill="#ff385c" fill-opacity="0.5" transform="rotate(4 240 590)"/>
  <rect x="160" y="568" width="140" height="6" rx="3" fill="#1a1412" fill-opacity="0.1" transform="rotate(4 240 590)"/>
  <rect x="160" y="584" width="120" height="6" rx="3" fill="#1a1412" fill-opacity="0.08" transform="rotate(4 240 590)"/>
  <!-- Map pin -->
  <path d="M380 620c0-28 22-50 50-50s50 22 50 50c0 38-50 90-50 90s-50-52-50-90z" fill="#ff385c" fill-opacity="0.25" stroke="#ff385c" stroke-width="2"/>
  <circle cx="430" cy="620" r="14" fill="#ff385c"/>
</svg>
